<svg xmlns="http://www.w3.org/2000/svg" viewBox="0 0 820 520" role="img" aria-labelledby="title desc"><title id="title">Checkmate Holding Group</title><desc id="desc">Mirrored blue and green chess knights with the Checkmate Holding Group wordmark.</desc><defs><linearGradient id="blue"><stop stop-color="#21b7ff"/><stop offset="1" stop-color="#075889"/></linearGradient><linearGradient id="green" x1="1"><stop stop-color="#06dfab"/><stop offset="1" stop-color="#075a51"/></linearGradient><filter id="glow" x="-40%" y="-40%" width="180%" height="180%"><feGaussianBlur stdDeviation="8" result="b"/><feMerge><feMergeNode in="b"/><feMergeNode in="SourceGraphic"/></feMerge></filter></defs><g transform="translate(410 185)" filter="url(#glow)"><path fill="url(#blue)" d="M0 84L-54 18-86 50l-7 66-40-24 5-89 38-63-58 18-54-12-19-47 13-91 56-83 42-20-13-35 83 25 44 50z"/><path fill="url(#green)" d="M0 84L54 18l86 98 40-24-5-89-38-63 58 18 54-12 19-47-13-91-56-83-42-20 13-35-83 25-44 50z"/><path d="M-190-115l38-14-10 24zM190-115l-38-14 10 24z" fill="#061017"/><path d="M-101 126H101l43 52h-288z" fill="#0b75ab"/></g><text x="410" y="422" text-anchor="middle" fill="#f4fbff" font-family="Arial,Helvetica,sans-serif" font-size="61" letter-spacing="19">CHECKMATE</text><text x="410" y="474" text-anchor="middle" fill="#9cb3bf" font-family="Arial,Helvetica,sans-serif" font-size="19" letter-spacing="14">HOLDING GROUP</text></svg>
